STARTFONT 2.1
FONT -Monotype-Plantin-Regular-R-Normal--24-240-75-75-P-133-iso8859-5
SIZE 24 75 75
FONTBOUNDINGBOX 29 28 -1 -6

STARTPROPERTIES 24
FOUNDRY "Monotype"
FAMILY_NAME "Plantin"
WEIGHT_NAME "Regular"
SLANT "R"
SETWIDTH_NAME "Normal"
ADD_STYLE_NAME ""
PIXEL_SIZE 24
POINT_SIZE 240
RESOLUTION_X 75
RESOLUTION_Y 75
SPACING "P"
AVERAGE_WIDTH 133
CHARSET_REGISTRY "iso8859"
CHARSET_ENCODING "5"
FACE_NAME "Plantin ISO Latin Cyrillic"
_DEC_DEVICE_FONTNAMES "PS=plantin-latcyrillic"
COPYRIGHT "Copyright (c) 1993 Monotype Typography Ltd."
CAP_HEIGHT 19
X_HEIGHT 12
WEIGHT 10
QUAD_WIDTH 17
DEFAULT_CHAR 160
FONT_DESCENT 6
FONT_ASCENT 22
ENDPROPERTIES

CHARS 191

STARTCHAR space
ENCODING 32
SWIDTH 250 0
DWIDTH 6 0
BBX 0 0 0 0
BITMAP
ENDCHAR

STARTCHAR exclam
ENCODING 33
SWIDTH 292 0
DWIDTH 7 0
BBX 3 17 2 0
BITMAP
E0
E0
E0
E0
E0
E0
40
40
40
40
40
40
00
00
E0
E0
E0
ENDCHAR

STARTCHAR quotedbl
ENCODING 34
SWIDTH 406 0
DWIDTH 10 0
BBX 6 7 2 10
BITMAP
CC
CC
CC
CC
CC
CC
44
ENDCHAR

STARTCHAR numbersign
ENCODING 35
SWIDTH 500 0
DWIDTH 13 0
BBX 12 18 0 0
BITMAP
0420
0420
0420
0860
0840
0840
FFF0
1840
1080
1080
1080
FFF0
2080
2100
2100
2100
2100
4100
ENDCHAR

STARTCHAR dollar
ENCODING 36
SWIDTH 552 0
DWIDTH 14 0
BBX 11 20 2 -3
BITMAP
1200
3F00
73C0
52C0
D240
D200
7200
7A00
3F00
17C0
13C0
1260
1260
D260
D240
7380
1F00
1200
1200
1200
ENDCHAR

STARTCHAR percent
ENCODING 37
SWIDTH 875 0
DWIDTH 22 0
BBX 20 18 1 -1
BITMAP
380100
440300
C60200
C60400
C60C00
C60800
C61000
643000
382000
0041C0
00C220
008630
010630
030630
020630
040630
0C0320
0801C0
ENDCHAR

STARTCHAR ampersand
ENCODING 38
SWIDTH 750 0
DWIDTH 19 0
BBX 17 18 1 0
BITMAP
03C000
0CC000
186000
186000
1C4000
1E8000
0F0F80
070F80
1B8300
31C600
60E400
C0EC00
E07800
E03800
F03C00
786E00
7FCF80
1F0780
ENDCHAR

STARTCHAR quoteright
ENCODING 39
SWIDTH 292 0
DWIDTH 7 0
BBX 4 7 2 10
BITMAP
60
F0
70
10
10
20
C0
ENDCHAR

STARTCHAR parenleft
ENCODING 40
SWIDTH 385 0
DWIDTH 10 0
BBX 7 22 2 -5
BITMAP
06
0C
18
30
20
60
40
40
C0
C0
C0
C0
C0
40
40
60
20
30
18
0C
06
02
ENDCHAR

STARTCHAR parenright
ENCODING 41
SWIDTH 385 0
DWIDTH 10 0
BBX 7 22 0 -5
BITMAP
C0
60
30
18
08
0C
04
06
06
06
06
06
06
06
04
0C
08
18
30
60
C0
40
ENDCHAR

STARTCHAR asterisk
ENCODING 42
SWIDTH 500 0
DWIDTH 13 0
BBX 10 10 1 8
BITMAP
0800
0C00
0C00
0FC0
FF80
2E00
1E00
1B00
3300
6080
ENDCHAR

STARTCHAR plus
ENCODING 43
SWIDTH 667 0
DWIDTH 17 0
BBX 14 14 1 1
BITMAP
0300
0300
0300
0300
0300
0300
FFFC
FFFC
0300
0300
0300
0300
0300
0300
ENDCHAR

STARTCHAR comma
ENCODING 44
SWIDTH 292 0
DWIDTH 7 0
BBX 5 8 1 -4
BITMAP
70
78
38
08
08
18
30
C0
ENDCHAR

STARTCHAR minus
ENCODING 45
SWIDTH 667 0
DWIDTH 17 0
BBX 13 2 2 7
BITMAP
FFF8
FFF8
ENDCHAR

STARTCHAR period
ENCODING 46
SWIDTH 292 0
DWIDTH 7 0
BBX 3 3 2 0
BITMAP
E0
E0
E0
ENDCHAR

STARTCHAR slash
ENCODING 47
SWIDTH 281 0
DWIDTH 7 0
BBX 7 17 0 0
BITMAP
02
04
04
04
08
08
08
10
10
10
20
20
20
40
40
40
80
ENDCHAR

STARTCHAR zero
ENCODING 48
SWIDTH 552 0
DWIDTH 14 0
BBX 11 17 1 0
BITMAP
1F00
3180
20C0
60C0
C0E0
C060
C060
C060
C060
C060
C060
E060
E040
60C0
7080
3180
0E00
ENDCHAR

STARTCHAR one
ENCODING 49
SWIDTH 552 0
DWIDTH 14 0
BBX 7 17 3 0
BITMAP
08
F8
38
18
18
18
18
18
18
18
18
18
18
18
18
3C
FE
ENDCHAR

STARTCHAR two
ENCODING 50
SWIDTH 552 0
DWIDTH 14 0
BBX 11 17 2 0
BITMAP
1E00
3F80
61C0
C1C0
80C0
80C0
00C0
0180
0180
0300
0600
0800
1000
2020
4040
FFC0
FFC0
ENDCHAR

STARTCHAR three
ENCODING 51
SWIDTH 552 0
DWIDTH 14 0
BBX 11 17 1 0
BITMAP
0F00
1FC0
31C0
40C0
00C0
0180
0300
0FC0
19E0
00E0
0060
0060
0060
00E0
01C0
8380
7E00
ENDCHAR

STARTCHAR four
ENCODING 52
SWIDTH 552 0
DWIDTH 14 0
BBX 12 17 1 0
BITMAP
0180
0380
0280
0580
0980
0980
1180
2180
6180
4190
81B0
FFE0
0180
0180
0180
03C0
07E0
ENDCHAR

STARTCHAR five
ENCODING 53
SWIDTH 552 0
DWIDTH 14 0
BBX 10 17 2 0
BITMAP
3FC0
7FC0
4000
4000
4000
5E00
FF00
C380
01C0
00C0
00C0
00C0
00C0
01C0
0380
0700
FC00
ENDCHAR

STARTCHAR six
ENCODING 54
SWIDTH 552 0
DWIDTH 14 0
BBX 10 17 2 0
BITMAP
0180
0E00
1800
3000
6000
6000
CF00
F380
E1C0
C0C0
C0C0
C0C0
C0C0
60C0
6180
3180
1E00
ENDCHAR

STARTCHAR seven
ENCODING 55
SWIDTH 552 0
DWIDTH 14 0
BBX 11 17 1 0
BITMAP
7FE0
7FE0
4040
8040
0080
0080
0180
0100
0300
0300
0600
0600
0600
0E00
0E00
0E00
0C00
ENDCHAR

STARTCHAR eight
ENCODING 56
SWIDTH 552 0
DWIDTH 14 0
BBX 11 17 1 0
BITMAP
1F00
60C0
C060
C060
C060
E0C0
79C0
2F00
1F80
23C0
60E0
C060
C060
C060
E040
70C0
1F00
ENDCHAR

STARTCHAR nine
ENCODING 57
SWIDTH 552 0
DWIDTH 14 0
BBX 10 17 2 0
BITMAP
1E00
6300
6180
C1C0
C0C0
C0C0
C0C0
C0C0
E1C0
7340
3DC0
0180
0180
0300
0600
1C00
6000
ENDCHAR

STARTCHAR colon
ENCODING 58
SWIDTH 292 0
DWIDTH 7 0
BBX 3 12 2 0
BITMAP
E0
E0
E0
00
00
00
00
00
00
E0
E0
E0
ENDCHAR

STARTCHAR semicolon
ENCODING 59
SWIDTH 292 0
DWIDTH 7 0
BBX 5 15 1 -3
BITMAP
70
70
70
00
00
00
00
20
78
78
18
08
08
10
E0
ENDCHAR

STARTCHAR less
ENCODING 60
SWIDTH 667 0
DWIDTH 17 0
BBX 13 13 2 2
BITMAP
0008
0038
00F8
07C0
1F00
7C00
C000
F000
7C00
0F80
03E0
0078
0018
ENDCHAR

STARTCHAR equal
ENCODING 61
SWIDTH 667 0
DWIDTH 17 0
BBX 13 8 2 4
BITMAP
FFF8
FFF8
0000
0000
0000
0000
FFF8
FFF8
ENDCHAR

STARTCHAR greater
ENCODING 62
SWIDTH 667 0
DWIDTH 17 0
BBX 13 13 2 2
BITMAP
8000
C000
F800
3E00
0780
01F0
0078
0078
03E0
0F80
7C00
F000
C000
ENDCHAR

STARTCHAR question
ENCODING 63
SWIDTH 385 0
DWIDTH 10 0
BBX 8 17 1 0
BITMAP
70
F8
04
02
02
03
03
07
3E
3C
30
20
20
00
70
70
70
ENDCHAR

STARTCHAR at
ENCODING 64
SWIDTH 917 0
DWIDTH 23 0
BBX 22 23 1 -6
BITMAP
00FF00
0300C0
040020
180010
300010
201988
406708
40C308
C18308
830608
830608
860610
860C10
861420
862C20
47CCC4
438708
600008
200010
100020
0C0040
030380
00FC00
ENDCHAR

STARTCHAR A
ENCODING 65
SWIDTH 719 0
DWIDTH 18 0
BBX 18 17 0 0
BITMAP
00C000
01C000
016000
036000
027000
027000
043800
043800
081C00
0FFC00
080C00
100E00
100E00
300700
300700
780F80
FC1FC0
ENDCHAR

STARTCHAR B
ENCODING 66
SWIDTH 688 0
DWIDTH 17 0
BBX 15 17 1 0
BITMAP
FFF0
7878
383C
381C
381C
381C
3818
3870
3FC0
3838
381C
380E
380E
380E
381E
7C1C
FFF0
ENDCHAR

STARTCHAR C
ENCODING 67
SWIDTH 781 0
DWIDTH 20 0
BBX 16 17 2 0
BITMAP
03FC
0E0F
1803
3001
7001
6000
E000
E000
E000
E000
E000
F000
7001
3801
3C03
0E07
03FC
ENDCHAR

STARTCHAR D
ENCODING 68
SWIDTH 844 0
DWIDTH 21 0
BBX 20 17 0 0
BITMAP
FFFC00
1C0F00
1C03C0
1C01C0
1C00E0
1C00F0
1C0070
1C0070
1C0070
1C0070
1C0070
1C0070
1C00E0
1C01C0
1C0180
1E0700
FFFC00
ENDCHAR

STARTCHAR E
ENCODING 69
SWIDTH 677 0
DWIDTH 17 0
BBX 15 17 1 0
BITMAP
FFFC
781C
380C
3804
3800
3808
3818
3838
3FF8
3838
3818
3800
3800
3802
3806
7C0E
FFFC
ENDCHAR

STARTCHAR F
ENCODING 70
SWIDTH 656 0
DWIDTH 16 0
BBX 16 17 0 0
BITMAP
FFFF
1C07
1C03
1C01
1C00
1C0C
1C0C
1FFC
1C1C
1C0C
1C0C
1C00
1C00
1C00
1C00
3E00
7F80
ENDCHAR

STARTCHAR G
ENCODING 71
SWIDTH 833 0
DWIDTH 21 0
BBX 19 17 1 0
BITMAP
01FE00
0E0700
1C0300
380100
700180
700000
E00000
E00000
E01FE0
E003C0
E00380
700380
700380
380380
1C0380
0E0780
01FC00
ENDCHAR

STARTCHAR H
ENCODING 72
SWIDTH 854 0
DWIDTH 21 0
BBX 20 17 1 0
BITMAP
FF0FF0
7C07C0
380380
380380
380380
380380
380380
380380
3FFF80
380380
380380
380380
380380
380380
380380
7C07C0
FF0FF0
ENDCHAR

STARTCHAR I
ENCODING 73
SWIDTH 375 0
DWIDTH 9 0
BBX 9 17 0 0
BITMAP
FF80
1E00
1C00
1C00
1C00
1C00
1C00
1C00
1C00
1C00
1C00
1C00
1C00
1C00
1C00
3E00
FF80
ENDCHAR

STARTCHAR J
ENCODING 74
SWIDTH 354 0
DWIDTH 9 0
BBX 10 21 -1 -4
BITMAP
7FC0
0F00
0E00
0E00
0E00
0E00
0E00
0E00
0E00
0E00
0E00
0E00
0E00
0E00
0E00
0E00
0E00
0C00
CC00
EC00
F800
ENDCHAR

STARTCHAR K
ENCODING 75
SWIDTH 802 0
DWIDTH 20 0
BBX 19 17 1 0
BITMAP
FE3F80
3C0E00
380C00
381800
383000
384000
398000
3B0000
3B8000
3BC000
38E000
387800
383C00
381E00
380F00
7C07C0
FF03E0
ENDCHAR

STARTCHAR L
ENCODING 76
SWIDTH 677 0
DWIDTH 17 0
BBX 17 17 0 0
BITMAP
FF8000
3E0000
1C0000
1C0000
1C0000
1C0000
1C0000
1C0000
1C0000
1C0000
1C0000
1C0000
1C0000
1C0080
1C0180
3E0380
FFFF00
ENDCHAR

STARTCHAR M
ENCODING 77
SWIDTH 1010 0
DWIDTH 25 0
BBX 24 17 1 0
BITMAP
3E007C
1E0078
1E0070
1A00F0
1700B0
1700B0
138130
138138
11C238
11C238
20E438
20E438
207818
20781C
20381C
70303E
F8307F
ENDCHAR

STARTCHAR N
ENCODING 78
SWIDTH 844 0
DWIDTH 21 0
BBX 21 17 0 0
BITMAP
F803F8
3C00E0
1E00C0
0F0040
0B8040
0BC040
09E040
08F040
087840
083C40
081E40
080F40
0807C0
0803C0
1801C0
1C00C0
7F00E0
ENDCHAR

STARTCHAR O
ENCODING 79
SWIDTH 812 0
DWIDTH 20 0
BBX 18 17 1 0
BITMAP
03F000
0C1C00
180F00
300700
700380
6003C0
E001C0
E001C0
E001C0
E001C0
E001C0
F001C0
700380
380300
3C0600
0E0C00
03F000
ENDCHAR

STARTCHAR P
ENCODING 80
SWIDTH 635 0
DWIDTH 16 0
BBX 14 17 1 0
BITMAP
FFE0
3878
383C
381C
381C
381C
3838
3878
3BE0
3800
3800
3800
3800
3800
3800
7C00
FF00
ENDCHAR

STARTCHAR Q
ENCODING 81
SWIDTH 812 0
DWIDTH 20 0
BBX 19 22 1 -5
BITMAP
03F000
0C1C00
180E00
300700
700380
600380
E001C0
E001C0
E001C0
E001C0
E001C0
F001C0
700180
780380
380300
1C0E00
07F800
01E000
00FC00
003F80
000FE0
0001E0
ENDCHAR

STARTCHAR R
ENCODING 82
SWIDTH 719 0
DWIDTH 18 0
BBX 17 17 1 0
BITMAP
FFE000
387800
383C00
381C00
381C00
381C00
381800
387000
3FC000
39C000
38E000
387000
387800
383C00
381E00
780F00
FE0780
ENDCHAR

STARTCHAR S
ENCODING 83
SWIDTH 594 0
DWIDTH 15 0
BBX 12 17 2 0
BITMAP
1F80
70E0
6060
E020
E020
7000
7C00
3F00
0F80
07C0
01E0
00F0
8070
C070
C060
F1C0
7F80
ENDCHAR

STARTCHAR T
ENCODING 84
SWIDTH 760 0
DWIDTH 19 0
BBX 19 17 0 0
BITMAP
7FFFC0
E0E0C0
C0E060
80E020
00E000
00E000
00E000
00E000
00E000
00E000
00E000
00E000
00E000
00E000
00E000
01F000
07F800
ENDCHAR

STARTCHAR U
ENCODING 85
SWIDTH 833 0
DWIDTH 21 0
BBX 21 17 0 0
BITMAP
FF83F8
1E00E0
1C0040
1C0040
1C0040
1C0040
1C0040
1C0040
1C0040
1C0040
1C0040
1C0040
1C00C0
0E0080
0F0380
03FF00
00F800
ENDCHAR

STARTCHAR V
ENCODING 86
SWIDTH 708 0
DWIDTH 18 0
BBX 18 17 0 0
BITMAP
FE0FC0
780780
380300
380200
1C0200
1C0400
0E0400
0E0C00
070800
071800
039000
039000
01E000
01E000
00E000
00C000
00C000
ENDCHAR

STARTCHAR W
ENCODING 87
SWIDTH 1000 0
DWIDTH 25 0
BBX 25 17 0 0
BITMAP
FDFBEF80
78F1C700
38718200
38710600
18390400
1C3A0400
0C1E0800
0E1C0800
060E1800
070E1000
071B3000
03972000
03A3A000
01C3C000
01C1C000
00C18000
00C08000
ENDCHAR

STARTCHAR X
ENCODING 88
SWIDTH 781 0
DWIDTH 20 0
BBX 20 17 0 0
BITMAP
FF0FC0
3E0380
1E0600
0E0600
070C00
039800
01F000
01E000
007000
00F800
013800
021C00
060E00
0C0700
180780
3C07C0
FE1FF0
ENDCHAR

STARTCHAR Y
ENCODING 89
SWIDTH 719 0
DWIDTH 18 0
BBX 17 17 0 0
BITMAP
FE1F80
7C0F00
380600
1C0600
1E0C00
0E0800
071000
03B000
03E000
01C000
01C000
01C000
01C000
01C000
01C000
03E000
07F000
ENDCHAR

STARTCHAR Z
ENCODING 90
SWIDTH 677 0
DWIDTH 17 0
BBX 15 17 1 0
BITMAP
7FFE
701C
6038
4070
00F0
00E0
01C0
0380
0780
0700
0E00
1C00
3C00
3806
7006
E01C
FFFC
ENDCHAR

STARTCHAR bracketleft
ENCODING 91
SWIDTH 375 0
DWIDTH 9 0
BBX 5 22 4 -5
BITMAP
F8
C0
C0
C0
C0
C0
C0
C0
C0
C0
C0
C0
C0
C0
C0
C0
C0
C0
C0
C0
C0
F8
ENDCHAR

STARTCHAR backslash
ENCODING 92
SWIDTH 281 0
DWIDTH 7 0
BBX 7 17 0 0
BITMAP
80
40
40
40
20
20
20
10
10
10
08
08
08
04
04
04
02
ENDCHAR

STARTCHAR bracketright
ENCODING 93
SWIDTH 375 0
DWIDTH 9 0
BBX 5 22 1 -5
BITMAP
F8
18
18
18
18
18
18
18
18
18
18
18
18
18
18
18
18
18
18
18
18
F8
ENDCHAR

STARTCHAR asciicircum
ENCODING 94
SWIDTH 469 0
DWIDTH 12 0
BBX 11 9 0 8
BITMAP
0400
0600
0B00
0900
1080
3080
2040
4040
C020
ENDCHAR

STARTCHAR underscore
ENCODING 95
SWIDTH 500 0
DWIDTH 13 0
BBX 13 1 0 -5
BITMAP
FFF8
ENDCHAR

STARTCHAR quoteleft
ENCODING 96
SWIDTH 292 0
DWIDTH 7 0
BBX 4 7 2 10
BITMAP
30
40
80
80
E0
F0
60
ENDCHAR

STARTCHAR a
ENCODING 97
SWIDTH 479 0
DWIDTH 12 0
BBX 10 12 1 0
BITMAP
3E00
6700
C300
E300
4300
0F00
3300
C300
C300
C700
FDC0
7180
ENDCHAR

STARTCHAR b
ENCODING 98
SWIDTH 562 0
DWIDTH 14 0
BBX 13 18 0 0
BITMAP
1000
F000
7000
3000
3000
3000
33C0
37E0
3870
3038
3018
3018
3018
3018
3010
3830
3C60
0F80
ENDCHAR

STARTCHAR c
ENCODING 99
SWIDTH 469 0
DWIDTH 12 0
BBX 10 12 1 0
BITMAP
1F80
31C0
60C0
C000
C000
C000
C000
E000
E040
70C0
3F80
1F00
ENDCHAR

STARTCHAR d
ENCODING 100
SWIDTH 573 0
DWIDTH 14 0
BBX 13 18 1 0
BITMAP
0060
01E0
0060
0060
0060
0060
0FE0
31E0
60E0
4060
C060
C060
C060
E060
E060
70E0
3F78
1C60
ENDCHAR

STARTCHAR e
ENCODING 101
SWIDTH 469 0
DWIDTH 12 0
BBX 10 12 1 0
BITMAP
1E00
2380
6180
41C0
FFC0
C000
C000
C000
E000
70C0
3F80
1E00
ENDCHAR

STARTCHAR f
ENCODING 102
SWIDTH 312 0
DWIDTH 8 0
BBX 10 18 1 0
BITMAP
0F80
19C0
3080
3000
3000
3000
FE00
3000
3000
3000
3000
3000
3000
3000
3000
3000
7800
FE00
ENDCHAR

STARTCHAR g
ENCODING 103
SWIDTH 500 0
DWIDTH 13 0
BBX 12 17 0 -5
BITMAP
1F00
31F0
60F0
60C0
60C0
70C0
3180
1F00
2000
7000
7FE0
3FF0
6070
C030
C020
F0C0
3F80
ENDCHAR

STARTCHAR h
ENCODING 104
SWIDTH 562 0
DWIDTH 14 0
BBX 14 18 0 0
BITMAP
1000
F000
7000
3000
3000
3000
33C0
37E0
3870
3030
3030
3030
3030
3030
3030
3030
7878
FCFC
ENDCHAR

STARTCHAR i
ENCODING 105
SWIDTH 271 0
DWIDTH 7 0
BBX 6 17 1 0
BITMAP
20
70
20
00
00
10
F0
70
30
30
30
30
30
30
30
78
FC
ENDCHAR

STARTCHAR j
ENCODING 106
SWIDTH 260 0
DWIDTH 7 0
BBX 4 22 1 -5
BITMAP
20
70
20
00
00
10
F0
70
30
30
30
30
30
30
30
30
30
30
60
40
C0
40
ENDCHAR

STARTCHAR k
ENCODING 107
SWIDTH 510 0
DWIDTH 13 0
BBX 12 18 0 0
BITMAP
3000
F000
3000
3000
3000
3000
33F0
31C0
3180
3300
3600
3600
3700
3380
31C0
30E0
7870
FC30
ENDCHAR

STARTCHAR l
ENCODING 108
SWIDTH 271 0
DWIDTH 7 0
BBX 6 17 0 0
BITMAP
F0
70
30
30
30
30
30
30
30
30
30
30
30
30
30
78
FC
ENDCHAR

STARTCHAR m
ENCODING 109
SWIDTH 865 0
DWIDTH 22 0
BBX 21 12 1 0
BITMAP
13C780
F7EFE0
7870E0
306060
306060
306060
306060
306060
306060
306060
7870F0
FDF9F8
ENDCHAR

STARTCHAR n
ENCODING 110
SWIDTH 573 0
DWIDTH 14 0
BBX 14 12 0 0
BITMAP
13C0
F7E0
7870
3030
3030
3030
3030
3030
3030
3030
7878
FCFC
ENDCHAR

STARTCHAR o
ENCODING 111
SWIDTH 542 0
DWIDTH 14 0
BBX 11 12 1 0
BITMAP
1F00
2180
60C0
C0E0
C060
C060
C060
E060
E060
60C0
3080
0F00
ENDCHAR

STARTCHAR p
ENCODING 112
SWIDTH 562 0
DWIDTH 14 0
BBX 13 17 0 -5
BITMAP
13C0
F7F0
7870
3038
3018
3018
3018
3018
3010
3830
3C60
3780
3000
3000
3000
7800
FC00
ENDCHAR

STARTCHAR q
ENCODING 113
SWIDTH 562 0
DWIDTH 14 0
BBX 13 17 1 -5
BITMAP
0FA0
30E0
60E0
4060
C060
C060
C060
E060
E060
70E0
3F60
1E60
0060
0060
0060
00F0
01F8
ENDCHAR

STARTCHAR r
ENCODING 114
SWIDTH 375 0
DWIDTH 9 0
BBX 9 12 0 0
BITMAP
1300
F780
7980
3000
3000
3000
3000
3000
3000
3000
7800
FE00
ENDCHAR

STARTCHAR s
ENCODING 115
SWIDTH 396 0
DWIDTH 10 0
BBX 8 12 1 0
BITMAP
3C
46
C2
C2
F0
7C
1E
07
83
C3
E2
7C
ENDCHAR

STARTCHAR t
ENCODING 116
SWIDTH 333 0
DWIDTH 8 0
BBX 8 14 0 0
BITMAP
10
30
FE
30
30
30
30
30
30
30
30
30
3F
1E
ENDCHAR

STARTCHAR u
ENCODING 117
SWIDTH 573 0
DWIDTH 14 0
BBX 14 12 0 0
BITMAP
F0F0
7070
3030
3030
3030
3030
3030
3030
3030
3870
3FBC
0E30
ENDCHAR

STARTCHAR v
ENCODING 118
SWIDTH 479 0
DWIDTH 12 0
BBX 12 12 0 0
BITMAP
FCF0
7060
3060
3840
1840
1880
1C80
0D00
0E00
0600
0600
0200
ENDCHAR

STARTCHAR w
ENCODING 119
SWIDTH 729 0
DWIDTH 18 0
BBX 18 12 0 0
BITMAP
F9F3C0
70E180
70E180
306100
30E100
18B200
193200
1D3C00
0E1C00
0E1C00
061800
040800
ENDCHAR

STARTCHAR x
ENCODING 120
SWIDTH 500 0
DWIDTH 13 0
BBX 12 12 0 0
BITMAP
F9F0
70E0
38C0
1980
0D00
0E00
0700
0B80
11C0
30E0
70F0
F9F0
ENDCHAR

STARTCHAR y
ENCODING 121
SWIDTH 479 0
DWIDTH 12 0
BBX 12 17 0 -5
BITMAP
FCF0
3060
3060
3840
1840
1C80
0C80
0C80
0700
0700
0700
0200
0200
0400
2400
7C00
3000
ENDCHAR

STARTCHAR z
ENCODING 122
SWIDTH 437 0
DWIDTH 11 0
BBX 11 12 0 0
BITMAP
7FC0
61C0
4180
0380
0700
0600
0C00
1C00
1820
3040
60C0
FFC0
ENDCHAR

STARTCHAR braceleft
ENCODING 123
SWIDTH 479 0
DWIDTH 12 0
BBX 7 22 3 -5
BITMAP
0E
10
10
30
30
10
18
18
10
30
C0
60
10
18
18
18
38
30
30
10
10
0E
ENDCHAR

STARTCHAR bar
ENCODING 124
SWIDTH 198 0
DWIDTH 5 0
BBX 1 22 2 -5
BITMAP
80
80
80
80
80
80
80
80
80
80
80
80
80
80
80
80
80
80
80
80
80
80
ENDCHAR

STARTCHAR braceright
ENCODING 125
SWIDTH 479 0
DWIDTH 12 0
BBX 7 22 3 -5
BITMAP
E0
10
10
18
18
38
30
30
10
18
06
0C
10
10
30
30
18
18
18
10
10
E0
ENDCHAR

STARTCHAR asciitilde
ENCODING 126
SWIDTH 542 0
DWIDTH 14 0
BBX 12 4 1 6
BITMAP
3810
FE10
87E0
81C0
ENDCHAR

STARTCHAR space
ENCODING 160
SWIDTH 250 0
DWIDTH 7 0
BBX 0 0 0 0
BITMAP
ENDCHAR

STARTCHAR afii10023
ENCODING 161
SWIDTH 677 0
DWIDTH 17 0
BBX 15 21 1 0
BITMAP
1C70
1C70
0820
0000
FFFC
781C
380C
3804
3800
3818
3818
3838
3FF8
3838
3818
3800
3800
3802
3806
3C0E
FFFC
ENDCHAR

STARTCHAR afii10051
ENCODING 162
SWIDTH 823 0
DWIDTH 21 0
BBX 19 17 0 0
BITMAP
FFFE00
E38E00
C38600
838200
038000
038000
038000
039F00
03FF80
03C1C0
0380E0
0380E0
0380E0
0380E0
0388C0
07CDC0
0FEF00
ENDCHAR

STARTCHAR afii10052
ENCODING 163
SWIDTH 635 0
DWIDTH 16 0
BBX 14 22 1 0
BITMAP
03C0
0780
0600
0C00
0000
FFFC
783C
380C
3804
3804
3800
3800
3800
3800
3800
3800
3800
3800
3800
3800
7C00
FF00
ENDCHAR

STARTCHAR afii10053
ENCODING 164
SWIDTH 729 0
DWIDTH 18 0
BBX 17 17 1 0
BITMAP
01FC00
0E0700
1C0300
380100
700080
700000
600000
E00000
FFF000
E00000
F00000
700000
700000
380380
1C0780
0E0F00
03FC00
ENDCHAR

STARTCHAR afii10054
ENCODING 165
SWIDTH 594 0
DWIDTH 15 0
BBX 12 17 2 0
BITMAP
1F80
70E0
6060
E020
E020
7000
7C00
3F00
0F80
07C0
01E0
00F0
8070
C070
C060
F1C0
7F80
ENDCHAR

STARTCHAR afii10055
ENCODING 166
SWIDTH 375 0
DWIDTH 9 0
BBX 9 17 0 0
BITMAP
FF80
1E00
1C00
1C00
1C00
1C00
1C00
1C00
1C00
1C00
1C00
1C00
1C00
1C00
1C00
3E00
FF80
ENDCHAR

STARTCHAR afii10056
ENCODING 167
SWIDTH 375 0
DWIDTH 9 0
BBX 9 21 0 0
BITMAP
E380
E380
4100
0000
7F00
1C00
1C00
1C00
1C00
1C00
1C00
1C00
1C00
1C00
1C00
1C00
1C00
1C00
1C00
3E00
7F00
ENDCHAR

STARTCHAR afii10057
ENCODING 168
SWIDTH 354 0
DWIDTH 9 0
BBX 10 21 -1 -4
BITMAP
7FC0
0F00
0E00
0E00
0E00
0E00
0E00
0E00
0E00
0E00
0E00
0E00
0E00
0E00
0E00
0E00
0E00
0C00
CC00
EC00
F800
ENDCHAR

STARTCHAR afii10058
ENCODING 169
SWIDTH 986 0
DWIDTH 25 0
BBX 24 17 0 0
BITMAP
1FFF80
071F00
020E00
020E00
020E00
020E00
020E00
020E00
020FF8
020E1E
020E0F
020E07
020E07
040E07
640E0F
F81F1E
703FF8
ENDCHAR

STARTCHAR afii10059
ENCODING 170
SWIDTH 1015 0
DWIDTH 25 0
BBX 24 17 1 0
BITMAP
FE7F80
7C3E00
381C00
381C00
381C00
381C00
381C00
381C00
3FFFF8
381C1E
381C0F
381C07
381C07
381C07
381C0F
383E1E
FE7FF8
ENDCHAR

STARTCHAR afii10060
ENCODING 171
SWIDTH 823 0
DWIDTH 21 0
BBX 20 17 0 0
BITMAP
FFFE00
E38E00
C38200
838200
038000
038000
038000
039F00
03BF80
03C3C0
0381C0
0381C0
0381C0
0381C0
0381C0
07C3E0
0FE7F0
ENDCHAR

STARTCHAR afii10061
ENCODING 172
SWIDTH 750 0
DWIDTH 19 0
BBX 17 22 1 0
BITMAP
00F000
01C000
038000
020000
000000
FF0780
7C0F00
381800
381000
381000
382000
382000
386000
3FC000
38E000
387000
383800
383800
381C00
380E00
7C0700
FF0780
ENDCHAR

STARTCHAR hyphen
ENCODING 173
SWIDTH 365 0
DWIDTH 9 0
BBX 7 2 1 5
BITMAP
FE
FE
ENDCHAR

STARTCHAR afii10062
ENCODING 174
SWIDTH 750 0
DWIDTH 19 0
BBX 19 21 0 0
BITMAP
070600
038E00
01F800
000000
FE03E0
7C01C0
3C0180
1C0100
0E0100
0F0200
070400
038400
03C800
01C800
00F000
00F000
006000
002000
1C4000
1F8000
0F0000
ENDCHAR

STARTCHAR afii10145
ENCODING 175
SWIDTH 854 0
DWIDTH 21 0
BBX 20 21 1 -4
BITMAP
FF0FF0
7C07C0
380380
380380
380380
380380
380380
380380
380380
380380
380380
380380
380380
380380
380380
7807C0
FFFFF0
00E000
00E000
00E000
00E000
ENDCHAR

STARTCHAR afii10017
ENCODING 176
SWIDTH 719 0
DWIDTH 18 0
BBX 18 17 0 0
BITMAP
00C000
01C000
016000
036000
027000
027000
043800
043800
081C00
0FFC00
080C00
100E00
100E00
300700
300700
780F80
FC1FC0
ENDCHAR

STARTCHAR afii10018
ENCODING 177
SWIDTH 656 0
DWIDTH 16 0
BBX 14 17 1 0
BITMAP
FFF0
3C70
3818
3818
3808
3800
3800
3800
3FE0
3878
383C
381C
381C
381C
383C
7878
FFE0
ENDCHAR

STARTCHAR afii10019
ENCODING 178
SWIDTH 688 0
DWIDTH 17 0
BBX 15 17 1 0
BITMAP
FFF0
7878
383C
381C
381C
381C
3818
3870
3FC0
3838
381C
380E
380E
380E
381E
3C1C
FFF0
ENDCHAR

STARTCHAR afii10020
ENCODING 179
SWIDTH 635 0
DWIDTH 16 0
BBX 14 17 1 0
BITMAP
FFFC
783C
380C
3804
3804
3800
3800
3800
3800
3800
3800
3800
3800
3800
3800
7C00
FF00
ENDCHAR

STARTCHAR afii10021
ENCODING 180
SWIDTH 792 0
DWIDTH 20 0
BBX 19 21 0 -4
BITMAP
1FFFE0
070F80
020700
020700
020700
020700
020700
020700
020700
020700
020700
040700
040700
040700
040700
0C0F80
FFFFE0
E000E0
C00060
800020
800020
ENDCHAR

STARTCHAR afii10022
ENCODING 181
SWIDTH 677 0
DWIDTH 17 0
BBX 15 17 1 0
BITMAP
FFFC
781C
380C
3804
3800
3808
3818
3838
3FF8
3838
3818
3800
3800
3802
3806
3C0E
FFFC
ENDCHAR

STARTCHAR afii10024
ENCODING 182
SWIDTH 1031 0
DWIDTH 26 0
BBX 25 17 0 0
BITMAP
707F0700
781E0F00
041C1000
041C1000
021C3000
021C2000
021C2000
011C4000
01FFC000
039CE000
071C7000
071C7000
0E1C3800
1C1C1C00
381C0E00
783E0F00
F07F0780
ENDCHAR

STARTCHAR afii10025
ENCODING 183
SWIDTH 667 0
DWIDTH 17 0
BBX 15 17 1 0
BITMAP
3FC0
F070
6038
601C
401C
001C
0018
0070
07E0
0038
000C
000E
400E
E00E
F01C
7838
1FE0
ENDCHAR

STARTCHAR afii10026
ENCODING 184
SWIDTH 854 0
DWIDTH 21 0
BBX 20 17 1 0
BITMAP
FE0FF0
780780
380380
380780
380D80
380B80
381380
382380
384380
388380
390380
3A0380
3E0380
3C0380
380380
7807C0
FF0FF0
ENDCHAR

STARTCHAR afii10027
ENCODING 185
SWIDTH 854 0
DWIDTH 21 0
BBX 20 21 1 0
BITMAP
0E0E00
071C00
01F000
000000
FE0FF0
780780
380380
380780
380D80
380B80
381380
382380
384380
388380
390380
3A0380
3E0380
3C0380
380380
7807C0
FF0FF0
ENDCHAR

STARTCHAR afii10028
ENCODING 186
SWIDTH 750 0
DWIDTH 19 0
BBX 17 17 1 0
BITMAP
FF0780
7C0F00
381800
381000
381000
382000
382000
386000
3FC000
38E000
387000
383800
383800
381C00
380E00
7C0700
FF0780
ENDCHAR

STARTCHAR afii10029
ENCODING 187
SWIDTH 760 0
DWIDTH 19 0
BBX 18 17 0 0
BITMAP
1FFFC0
070F80
020700
020700
020700
020700
020700
020700
020700
020700
020700
020700
020700
040700
C40700
F80F80
701FC0
ENDCHAR

STARTCHAR afii10030
ENCODING 188
SWIDTH 1010 0
DWIDTH 25 0
BBX 24 17 1 0
BITMAP
3E007C
1E0078
1E0070
1A00F0
1700B0
1700B0
138130
138138
11C238
11C238
20E438
20E438
207818
20781C
20381C
70303E
F8307F
ENDCHAR

STARTCHAR afii10031
ENCODING 189
SWIDTH 854 0
DWIDTH 21 0
BBX 20 17 1 0
BITMAP
FF0FF0
7C07C0
380380
380380
380380
380380
380380
380380
3FFF80
380380
380380
380380
380380
380380
380380
7C07C0
FF0FF0
ENDCHAR

STARTCHAR afii10032
ENCODING 190
SWIDTH 813 0
DWIDTH 20 0
BBX 18 17 1 0
BITMAP
03F000
0C1C00
180F00
300700
700380
6003C0
E001C0
E001C0
E001C0
E001C0
E001C0
F00180
700380
380300
3C0600
0E0C00
03F000
ENDCHAR

STARTCHAR afii10033
ENCODING 191
SWIDTH 854 0
DWIDTH 21 0
BBX 20 17 1 0
BITMAP
FFFFF0
7C0780
380380
380380
380380
380380
380380
380380
380380
380380
380380
380380
380380
380380
380380
7C07C0
FF0FF0
ENDCHAR

STARTCHAR afii10034
ENCODING 192
SWIDTH 635 0
DWIDTH 16 0
BBX 14 17 1 0
BITMAP
FFE0
3878
383C
381C
381C
381C
3838
3878
3BE0
3800
3800
3800
3800
3800
3800
7C00
FF00
ENDCHAR

STARTCHAR afii10035
ENCODING 193
SWIDTH 781 0
DWIDTH 20 0
BBX 16 17 2 0
BITMAP
03FC
0E0F
1803
3001
7001
6000
E000
E000
E000
E000
E000
F000
7001
3801
3C03
0E07
03FC
ENDCHAR

STARTCHAR afii10036
ENCODING 194
SWIDTH 760 0
DWIDTH 19 0
BBX 19 17 0 0
BITMAP
7FFFC0
E0E0C0
C0E060
80E020
00E000
00E000
00E000
00E000
00E000
00E000
00E000
00E000
00E000
00E000
00E000
01F000
07F800
ENDCHAR

STARTCHAR afii10037
ENCODING 195
SWIDTH 750 0
DWIDTH 19 0
BBX 19 17 0 0
BITMAP
FE03E0
7C01C0
3C0180
1C0100
0E0100
0F0200
070400
038400
03C800
01C800
00F000
00F000
006000
002000
1C4000
1F8000
0F0000
ENDCHAR

STARTCHAR afii10038
ENCODING 196
SWIDTH 974 0
DWIDTH 24 0
BBX 23 17 1 0
BITMAP
00FE00
003800
003800
07FFC0
3C3838
70381C
E0380E
E0380E
E0380E
E0380E
60380C
70381C
1C3870
07FFC0
003800
003800
00FE00
ENDCHAR

STARTCHAR afii10039
ENCODING 197
SWIDTH 781 0
DWIDTH 20 0
BBX 20 17 0 0
BITMAP
FF0FC0
3E0380
1E0600
0E0600
070C00
039800
01F000
01E000
007000
00F800
013800
021C00
060E00
0C0700
180780
3C07C0
FE1FF0
ENDCHAR

STARTCHAR afii10040
ENCODING 198
SWIDTH 854 0
DWIDTH 21 0
BBX 20 21 1 -4
BITMAP
FF0FF0
7C07C0
380380
380380
380380
380380
380380
380380
380380
380380
380380
380380
380380
380380
380380
7807C0
FFFFF0
000070
000030
000010
000010
ENDCHAR

STARTCHAR afii10041
ENCODING 199
SWIDTH 854 0
DWIDTH 21 0
BBX 20 17 1 0
BITMAP
FF0FF0
7807C0
380380
380380
380380
380380
380380
380380
1C0780
0E1B80
07E380
000380
000380
000380
000380
0007C0
000FF0
ENDCHAR

STARTCHAR afii10042
ENCODING 200
SWIDTH 1052 0
DWIDTH 26 0
BBX 24 17 1 0
BITMAP
FEFE7F
7C7C3E
38381C
38381C
38381C
38381C
38381C
38381C
38381C
38381C
38381C
38381C
38381C
38381C
38381C
383C3E
FFFFFF
ENDCHAR

STARTCHAR afii10043
ENCODING 201
SWIDTH 1052 0
DWIDTH 26 0
BBX 24 21 1 -4
BITMAP
FEFE7F
7C7C3E
38381C
38381C
38381C
38381C
38381C
38381C
38381C
38381C
38381C
38381C
38381C
38381C
38381C
383C3E
FFFFFF
000003
000001
000001
000001
ENDCHAR

STARTCHAR afii10044
ENCODING 202
SWIDTH 775 0
DWIDTH 19 0
BBX 19 17 0 0
BITMAP
7FF800
71E000
61C000
41C000
81C000
01C000
01C000
01C000
01FF00
01C3C0
01C1E0
01C0E0
01C0E0
01C0E0
01C1E0
03E3C0
07FF00
ENDCHAR

STARTCHAR afii10045
ENCODING 203
SWIDTH 1031 0
DWIDTH 26 0
BBX 23 17 1 0
BITMAP
FF00FE
38003C
380038
380038
380038
380038
380038
380038
3FE038
387838
383838
381C38
381C38
381C38
383C38
78783C
FFE0FE
ENDCHAR

STARTCHAR afii10046
ENCODING 204
SWIDTH 632 0
DWIDTH 16 0
BBX 14 17 1 0
BITMAP
FF00
3800
3800
3800
3800
3800
3800
3800
3FE0
3878
383C
381C
381C
381C
383C
7878
FFE0
ENDCHAR

STARTCHAR afii10047
ENCODING 205
SWIDTH 719 0
DWIDTH 18 0
BBX 16 17 1 0
BITMAP
3FC0
F070
E018
C00C
800E
0006
0007
0007
07FF
0007
0007
0007
000E
C00E
E01C
7070
1FC0
ENDCHAR

STARTCHAR afii10048
ENCODING 206
SWIDTH 1177 0
DWIDTH 29 0
BBX 27 17 1 0
BITMAP
FF01F800
7C070E00
380C0380
38180380
383801C0
383801E0
383000E0
383000E0
3FF000E0
387800E0
383800E0
383800E0
383801C0
381C0180
380E0380
7C070600
FF01F800
ENDCHAR

STARTCHAR afii10049
ENCODING 207
SWIDTH 740 0
DWIDTH 18 0
BBX 17 17 0 0
BITMAP
03FF80
0F0F00
1E0E00
1C0E00
1C0E00
1C0E00
0C0E00
060E00
00FE00
01CE00
038E00
070E00
0F0E00
1E0E00
3C0E00
781F00
F03F80
ENDCHAR

STARTCHAR afii10065
ENCODING 208
SWIDTH 479 0
DWIDTH 12 0
BBX 10 12 1 0
BITMAP
3E00
6700
C300
E300
4300
0F00
3300
E300
C300
C700
FDC0
7180
ENDCHAR

STARTCHAR afii10066
ENCODING 209
SWIDTH 542 0
DWIDTH 14 0
BBX 12 18 1 0
BITMAP
0010
1FE0
3FE0
7000
6000
4000
4F80
B0C0
A060
E070
E030
E030
E030
6030
6030
3060
38C0
0F00
ENDCHAR

STARTCHAR afii10067
ENCODING 210
SWIDTH 552 0
DWIDTH 14 0
BBX 12 12 0 0
BITMAP
FFC0
3070
3030
3030
3060
3F80
3070
3030
3030
3030
7870
FFC0
ENDCHAR

STARTCHAR afii10068
ENCODING 211
SWIDTH 438 0
DWIDTH 11 0
BBX 10 12 0 0
BITMAP
FFC0
38C0
3040
3040
3000
3000
3000
3000
3000
3000
7800
FC00
ENDCHAR

STARTCHAR afii10069
ENCODING 212
SWIDTH 542 0
DWIDTH 14 0
BBX 13 15 0 -3
BITMAP
3FF8
18F0
1860
0860
1060
1060
1060
1060
1060
2060
30F0
FFF8
C018
8008
8008
ENDCHAR

STARTCHAR afii10070
ENCODING 213
SWIDTH 469 0
DWIDTH 12 0
BBX 10 12 1 0
BITMAP
1E00
2380
6180
41C0
FFC0
C000
C000
C000
E000
70C0
3F80
1E00
ENDCHAR

STARTCHAR afii10072
ENCODING 214
SWIDTH 854 0
DWIDTH 21 0
BBX 20 12 1 0
BITMAP
E1F870
F0E0F0
106080
106080
086100
0FFF00
1C6380
186180
3861C0
3060C0
70F0E0
E1F870
ENDCHAR

STARTCHAR afii10073
ENCODING 215
SWIDTH 469 0
DWIDTH 12 0
BBX 10 12 1 0
BITMAP
3F00
61C0
60C0
40C0
01C0
0E00
0180
00C0
40C0
E0C0
E180
3F00
ENDCHAR

STARTCHAR afii10074
ENCODING 216
SWIDTH 583 0
DWIDTH 15 0
BBX 14 12 0 0
BITMAP
FCFC
7838
3070
30D0
30B0
3130
3230
3430
3830
3830
7878
FCFC
ENDCHAR

STARTCHAR afii10075
ENCODING 217
SWIDTH 583 0
DWIDTH 15 0
BBX 14 17 0 0
BITMAP
1860
1860
0860
0780
0000
FCFC
7838
3070
30D0
30B0
3130
3230
3430
3830
3830
7878
FCFC
ENDCHAR

STARTCHAR afii10076
ENCODING 218
SWIDTH 573 0
DWIDTH 14 0
BBX 13 12 0 0
BITMAP
FC38
7078
3040
3040
3080
3F80
31C0
30C0
3060
3070
7830
FC38
ENDCHAR

STARTCHAR afii10077
ENCODING 219
SWIDTH 573 0
DWIDTH 14 0
BBX 13 12 1 0
BITMAP
3FF8
0870
0860
0860
0860
0860
0860
0860
0860
4860
F0F0
61F8
ENDCHAR

STARTCHAR afii10078
ENCODING 220
SWIDTH 625 0
DWIDTH 16 0
BBX 15 12 0 0
BITMAP
787C
2C58
2C58
2C58
2C98
2698
2698
2718
4718
431C
E31C
E23E
ENDCHAR

STARTCHAR afii10079
ENCODING 221
SWIDTH 563 0
DWIDTH 14 0
BBX 14 12 0 0
BITMAP
FCFC
7878
3030
3030
3030
3FF0
3030
3030
3030
3030
7878
FCFC
ENDCHAR

STARTCHAR afii10080
ENCODING 222
SWIDTH 542 0
DWIDTH 14 0
BBX 11 12 1 0
BITMAP
1F00
2180
60C0
C0E0
C060
C060
C060
E060
E060
60C0
3080
0F00
ENDCHAR

STARTCHAR afii10081
ENCODING 223
SWIDTH 573 0
DWIDTH 14 0
BBX 14 12 0 0
BITMAP
FFFC
7878
3030
3030
3030
3030
3030
3030
3030
3030
7878
FCFC
ENDCHAR

STARTCHAR afii10082
ENCODING 224
SWIDTH 562 0
DWIDTH 14 0
BBX 13 17 0 -5
BITMAP
13C0
F7F0
7870
3038
3018
3018
3018
3018
3010
3830
3C60
3780
3000
3000
3000
7800
FC00
ENDCHAR

STARTCHAR afii10083
ENCODING 225
SWIDTH 469 0
DWIDTH 12 0
BBX 10 12 1 0
BITMAP
1F80
31C0
60C0
C000
C000
C000
C000
E000
E040
70C0
3F80
1F00
ENDCHAR

STARTCHAR afii10084
ENCODING 226
SWIDTH 458 0
DWIDTH 11 0
BBX 10 12 1 0
BITMAP
FFC0
CCC0
8C40
0C00
0C00
0C00
0C00
0C00
0C00
0C00
1E00
3F00
ENDCHAR

STARTCHAR afii10085
ENCODING 227
SWIDTH 479 0
DWIDTH 12 0
BBX 12 17 0 -5
BITMAP
FCF0
3060
3060
3840
1840
1C80
0C80
0C80
0700
0700
0700
0200
0200
0400
2400
7C00
3000
ENDCHAR

STARTCHAR afii10086
ENCODING 228
SWIDTH 750 0
DWIDTH 19 0
BBX 16 22 1 -4
BITMAP
0080
0780
0380
0180
0180
0180
3DBC
63C6
6186
C183
C183
C183
C183
C183
C183
6186
63C6
1DB8
0180
0180
0180
07E0
ENDCHAR

STARTCHAR afii10087
ENCODING 229
SWIDTH 500 0
DWIDTH 13 0
BBX 12 12 0 0
BITMAP
F9F0
70E0
38C0
1980
0D00
0E00
0700
0B80
11C0
30E0
70F0
F9F0
ENDCHAR

STARTCHAR afii10088
ENCODING 230
SWIDTH 573 0
DWIDTH 14 0
BBX 14 15 0 -3
BITMAP
FCFC
7878
3030
3030
3030
3030
3030
3030
3030
3030
7870
FFFC
000C
000C
0004
ENDCHAR

STARTCHAR afii10089
ENCODING 231
SWIDTH 573 0
DWIDTH 14 0
BBX 14 12 0 0
BITMAP
FCFC
7878
3030
3030
3030
3030
18F0
0F30
0030
0030
0078
00FC
ENDCHAR

STARTCHAR afii10090
ENCODING 232
SWIDTH 854 0
DWIDTH 21 0
BBX 21 12 0 0
BITMAP
FDF9F8
78F0F0
306060
306060
306060
306060
306060
306060
306060
306060
3070F0
FFFFF8
ENDCHAR

STARTCHAR afii10091
ENCODING 233
SWIDTH 854 0
DWIDTH 21 0
BBX 21 15 0 -3
BITMAP
FDF9F8
78F0F0
306060
306060
306060
306060
306060
306060
306060
306060
3070E0
FFFFF8
000018
000018
000008
ENDCHAR

STARTCHAR afii10092
ENCODING 234
SWIDTH 638 0
DWIDTH 16 0
BBX 15 12 0 0
BITMAP
7F80
4700
C600
0600
0600
07F8
060E
0606
0606
0606
0E0E
1FF8
ENDCHAR

STARTCHAR afii10093
ENCODING 235
SWIDTH 792 0
DWIDTH 20 0
BBX 19 12 0 0
BITMAP
FC07E0
7803C0
300180
300180
300180
3FC180
307180
303180
303180
303180
7063C0
FFC7E0
ENDCHAR

STARTCHAR afii10094
ENCODING 236
SWIDTH 485 0
DWIDTH 12 0
BBX 11 12 0 0
BITMAP
FC00
7800
3000
3000
3000
3F80
30E0
3060
3060
30E0
70C0
FF80
ENDCHAR

STARTCHAR afii10095
ENCODING 237
SWIDTH 490 0
DWIDTH 12 0
BBX 10 12 1 0
BITMAP
3E00
E300
C180
41C0
00C0
0FC0
00C0
01C0
C1C0
C180
E300
3C00
ENDCHAR

STARTCHAR afii10096
ENCODING 238
SWIDTH 813 0
DWIDTH 20 0
BBX 19 12 0 0
BITMAP
FC1F00
786180
30C0C0
30C0E0
30C060
3FC060
30C060
30C060
30E040
3060C0
783180
FC1E00
ENDCHAR

STARTCHAR afii10097
ENCODING 239
SWIDTH 563 0
DWIDTH 14 0
BBX 13 12 0 0
BITMAP
0FF8
3870
3060
3060
3860
07E0
0C60
1C60
1860
3860
70F0
F1F8
ENDCHAR

STARTCHAR afii61352
ENCODING 240
SWIDTH 1031 0
DWIDTH 26 0
BBX 25 17 0 0
BITMAP
3E01C000
1E03E000
0B020000
0B020000
0B821E00
09C23300
08C26180
08E26180
08726180
08726180
083A6180
081E3300
081E1E00
080E0000
08060000
F8063F00
F0023F00
ENDCHAR

STARTCHAR afii10071
ENCODING 241
SWIDTH 469 0
DWIDTH 12 0
BBX 10 16 1 0
BITMAP
3300
3300
0000
0000
1E00
3380
6180
41C0
FFC0
C000
C000
E000
6000
70C0
3F80
1E00
ENDCHAR

STARTCHAR afii10099
ENCODING 242
SWIDTH 513 0
DWIDTH 13 0
BBX 11 22 0 -4
BITMAP
1000
F000
7000
3000
FFC0
3000
3000
3380
37C0
38E0
3060
3060
3060
3060
3060
3060
7840
FCC0
0080
0080
0100
0200
ENDCHAR

STARTCHAR afii10100
ENCODING 243
SWIDTH 458 0
DWIDTH 11 0
BBX 10 17 0 0
BITMAP
0700
0600
0C00
0000
0000
FFC0
38C0
3040
3040
3000
3000
3000
3000
3000
3000
7800
FC00
ENDCHAR

STARTCHAR afii10101
ENCODING 244
SWIDTH 490 0
DWIDTH 12 0
BBX 10 12 1 0
BITMAP
1F00
31C0
60C0
E040
E000
FE00
E000
E000
60C0
60C0
31C0
0F00
ENDCHAR

STARTCHAR afii10102
ENCODING 245
SWIDTH 396 0
DWIDTH 10 0
BBX 8 12 1 0
BITMAP
3C
46
C2
C2
F0
7C
1E
07
83
C3
E2
7C
ENDCHAR

STARTCHAR afii10103
ENCODING 246
SWIDTH 271 0
DWIDTH 7 0
BBX 6 17 1 0
BITMAP
20
70
20
00
00
10
F0
70
30
30
30
30
30
30
30
78
FC
ENDCHAR

STARTCHAR afii10104
ENCODING 247
SWIDTH 271 0
DWIDTH 7 0
BBX 6 16 0 0
BITMAP
CC
CC
00
00
10
F0
70
30
30
30
30
30
30
30
38
FC
ENDCHAR

STARTCHAR afii10105
ENCODING 248
SWIDTH 260 0
DWIDTH 7 0
BBX 4 22 1 -5
BITMAP
20
70
20
00
00
10
F0
70
30
30
30
30
30
30
30
30
30
30
60
40
C0
40
ENDCHAR

STARTCHAR afii10106
ENCODING 249
SWIDTH 831 0
DWIDTH 21 0
BBX 19 12 1 0
BITMAP
3FF800
087000
086000
086000
086000
087F80
0860E0
0860E0
086060
4860E0
F0F1E0
61FF80
ENDCHAR

STARTCHAR afii10107
ENCODING 250
SWIDTH 814 0
DWIDTH 20 0
BBX 19 12 0 0
BITMAP
FDF800
78F000
306000
306000
306000
3FFF80
3060E0
306060
306060
306060
78F0E0
FDFF80
ENDCHAR

STARTCHAR afii10108
ENCODING 251
SWIDTH 573 0
DWIDTH 14 0
BBX 14 17 0 0
BITMAP
7000
F000
3000
3000
3000
FFE0
3000
3000
33C0
37F0
3870
3030
3030
3030
3030
7878
FCFC
ENDCHAR

STARTCHAR afii10109
ENCODING 252
SWIDTH 573 0
DWIDTH 14 0
BBX 13 17 0 0
BITMAP
0180
0180
0300
0200
0000
FC38
7078
3040
3040
3080
3F80
31C0
30C0
3060
3070
7830
FC38
ENDCHAR

STARTCHAR section
ENCODING 253
SWIDTH 427 0
DWIDTH 11 0
BBX 8 22 1 -5
BITMAP
1E
67
62
A0
A0
B0
90
88
CC
C4
46
62
23
31
19
09
0D
05
05
42
E6
78
ENDCHAR

STARTCHAR afii10110
ENCODING 254
SWIDTH 479 0
DWIDTH 12 0
BBX 12 23 1 -5
BITMAP
30C0
30C0
10C0
0F00
0000
0000
F8F0
7060
7060
3040
3840
1880
1C80
0D80
0F00
0700
0600
0600
0600
0400
4C00
F800
7000
ENDCHAR

STARTCHAR afii10193
ENCODING 255
SWIDTH 573 0
DWIDTH 14 0
BBX 14 15 0 -3
BITMAP
FCFC
7878
3030
3030
3030
3030
3030
3030
3030
3030
7878
FFFC
0300
0300
0300
ENDCHAR
ENDFONT
